# xmcd
#
# Track frame offsets:
#	150
#	14741
#	31948
#	53026
#	78934
#	103178
#	121128
#	141929
#
# Disc length: 2135 seconds
#
# Revision: 1
# Processed by: cddbd v1.5.2PL0 Copyright (c) Steve Scherf et al.
# Submitted via: EZCDAudioConverter 8.0.2.1
#
DISCID=64085508
DTITLE=Thanh Thảo - Biết Đâu Nguồn Cội
DYEAR=2006
DGENRE=World Pop
TTITLE0=Bà Rí
TTITLE1=Gái xuân
TTITLE2=Yêu cái đèn cù
TTITLE3=LK Dân ca 3 miền. Qua càu gió bay, Giận mà thương, Lý ngựa ô
TTITLE4=Chiều lên bản Thượng
TTITLE5=Biết Đâu Nguồn Cội
TTITLE6=Trăng về thôn Dã
TTITLE7=Trống cơm
EXTD=
EXTT0=
EXTT1=
EXTT2=
EXTT3=
EXTT4=
EXTT5=
EXTT6=
EXTT7=
PLAYORDER=
